<svg xmlns="http://www.w3.org/2000/svg" width="212.85" height="156.13" viewBox="0 0 212.85 156.13">
  <g id="Group_2" data-name="Group 2" transform="translate(-1093 -821)">
    <path id="Path_51" data-name="Path 51" d="M38.95,81.76l4.96-2.87-1.86-7.01L36.08,76.8Z" transform="translate(1261.94 816.27)" fill="#fe9f59"/>
    <path id="Path_52" data-name="Path 52" d="M26.01,64.36l-1.77-5.44-7.25.35,3.57,6.87Z" transform="translate(1150.685 768)" fill="#fe5959"/>
    <path id="Path_53" data-name="Path 53" d="M20.6,73.17l-2.42-3.24-4.76,1.88,3.94,3.78Z" transform="translate(1125.919 807.256)" fill="#7681c2"/>
    <path id="Path_54" data-name="Path 54" d="M41.22,85.46,40,92.34S32.64,88,28.17,90.2C28.17,90.2,31.38,83.67,41.22,85.46Z" transform="translate(1261.94 845.149)" fill="#de5050"/>
    <path id="Path_55" data-name="Path 55" d="M18.78,91.54,20,84.66S27.36,89,31.83,86.8C31.83,86.8,28.62,93.33,18.78,91.54Z" transform="translate(1174.365 843.975)" fill="#fe5959"/>
    <circle id="Ellipse_12" data-name="Ellipse 12" cx="1.5" cy="1.5" r="1.5" transform="translate(1097.359 821)" fill="#fe9f59"/>
    <path id="Path_56" data-name="Path 56" d="M33,72s-1,10-9,9-14,0-13,9,6,10,6,10l-5-2v6S5,93,7,85s16-5,16-5,4-2,2-6Z" transform="translate(1086.359 873.13)" fill="#fe9f59"/>
  </g>
</svg>
