<svg xmlns="http://www.w3.org/2000/svg" width="130.942" height="55.654" viewBox="0 0 130.942 55.654">
  <g id="Cloud_Beach" data-name="Cloud Beach" transform="translate(365 -97.917)">
    <path id="Path_47" data-name="Path 47" d="M129.486,47.635a22.478,22.478,0,0,1-15.44-6,11.676,11.676,0,0,0-8.566-3.6,11.894,11.894,0,0,0-8.62,3.6,22.806,22.806,0,0,1-30.826,0,12.054,12.054,0,0,0-17.186,0,22.806,22.806,0,0,1-30.826,0,11.676,11.676,0,0,0-8.566-3.6,5.456,5.456,0,1,1,0-10.912,22.206,22.206,0,0,1,15.386,6,12.058,12.058,0,0,0,17.186,0,22.806,22.806,0,0,1,30.826,0,12.053,12.053,0,0,0,17.186,0,22.806,22.806,0,0,1,30.826,0,11.894,11.894,0,0,0,8.62,3.6,5.456,5.456,0,1,1,0,10.912Z" transform="translate(-369 105.936)" fill="#488df5"/>
    <path id="Path_48" data-name="Path 48" d="M129.486,43.635a22.478,22.478,0,0,1-15.44-6,11.676,11.676,0,0,0-8.566-3.6,11.894,11.894,0,0,0-8.62,3.6,22.806,22.806,0,0,1-30.826,0,12.053,12.053,0,0,0-17.186,0,22.806,22.806,0,0,1-30.826,0,11.676,11.676,0,0,0-8.566-3.6,5.456,5.456,0,1,1,0-10.912,22.206,22.206,0,0,1,15.386,6,12.058,12.058,0,0,0,17.186,0,22.806,22.806,0,0,1,30.826,0,12.053,12.053,0,0,0,17.186,0,22.806,22.806,0,0,1,30.826,0,11.894,11.894,0,0,0,8.62,3.6,5.456,5.456,0,0,1,0,10.912Z" transform="translate(-369 74.795)" fill="#488df5"/>
  </g>
</svg>
